<?xml version="1.0" encoding="UTF-8"?>
<svg xmlns="http://www.w3.org/2000/svg" version="1.1" width="500" height="500" viewBox="0 0 500 500"><rect x="0" y="0" width="500" height="500" fill="#ffffff"/><g transform="scale(23.81)"><g transform="translate(0,0)"><path fill-rule="evenodd" d="M9 0L9 3L8 3L8 5L9 5L9 4L10 4L10 7L9 7L9 6L8 6L8 7L9 7L9 9L8 9L8 8L5 8L5 9L4 9L4 10L3 10L3 9L2 9L2 8L0 8L0 9L1 9L1 10L0 10L0 11L1 11L1 12L0 12L0 13L3 13L3 12L2 12L2 11L1 11L1 10L3 10L3 11L4 11L4 10L5 10L5 9L7 9L7 10L6 10L6 11L7 11L7 12L6 12L6 13L8 13L8 16L9 16L9 19L8 19L8 21L9 21L9 19L10 19L10 20L11 20L11 21L15 21L15 20L16 20L16 21L17 21L17 17L16 17L16 16L15 16L15 15L14 15L14 11L13 11L13 13L12 13L12 16L13 16L13 15L14 15L14 17L13 17L13 18L12 18L12 17L11 17L11 18L10 18L10 16L9 16L9 14L10 14L10 15L11 15L11 14L10 14L10 11L12 11L12 10L16 10L16 9L18 9L18 8L16 8L16 9L13 9L13 4L12 4L12 3L10 3L10 1L11 1L11 2L12 2L12 1L13 1L13 0ZM11 5L11 7L12 7L12 5ZM10 8L10 9L11 9L11 10L12 10L12 8ZM8 10L8 11L9 11L9 10ZM17 10L17 12L16 12L16 11L15 11L15 13L16 13L16 14L18 14L18 12L19 12L19 11L20 11L20 10ZM4 12L4 13L5 13L5 12ZM8 12L8 13L9 13L9 12ZM20 13L20 14L19 14L19 15L17 15L17 16L19 16L19 17L21 17L21 15L20 15L20 14L21 14L21 13ZM19 15L19 16L20 16L20 15ZM13 18L13 19L11 19L11 20L15 20L15 19L16 19L16 18ZM19 18L19 19L18 19L18 20L19 20L19 21L20 21L20 20L19 20L19 19L21 19L21 18ZM0 0L0 7L7 7L7 0ZM1 1L1 6L6 6L6 1ZM2 2L2 5L5 5L5 2ZM14 0L14 7L21 7L21 0ZM15 1L15 6L20 6L20 1ZM16 2L16 5L19 5L19 2ZM0 14L0 21L7 21L7 14ZM1 15L1 20L6 20L6 15ZM2 16L2 19L5 19L5 16Z" fill="#000000"/></g></g></svg>
