<?xml version="1.0" encoding="UTF-8"?>
<svg xmlns="http://www.w3.org/2000/svg" version="1.1" width="500" height="500" viewBox="0 0 500 500"><rect x="0" y="0" width="500" height="500" fill="#ffffff"/><g transform="scale(23.81)"><g transform="translate(0,0)"><path fill-rule="evenodd" d="M12 0L12 2L11 2L11 1L10 1L10 4L9 4L9 3L8 3L8 5L9 5L9 6L8 6L8 7L9 7L9 6L10 6L10 7L11 7L11 6L12 6L12 7L13 7L13 6L12 6L12 5L13 5L13 0ZM11 3L11 4L10 4L10 6L11 6L11 5L12 5L12 3ZM0 8L0 9L2 9L2 8ZM5 8L5 9L4 9L4 10L3 10L3 12L1 12L1 13L5 13L5 12L4 12L4 10L5 10L5 11L7 11L7 10L6 10L6 9L8 9L8 12L6 12L6 13L8 13L8 16L10 16L10 19L13 19L13 18L16 18L16 19L15 19L15 20L12 20L12 21L15 21L15 20L16 20L16 21L17 21L17 17L16 17L16 16L15 16L15 15L14 15L14 11L13 11L13 10L16 10L16 9L18 9L18 8L16 8L16 9L12 9L12 8L11 8L11 9L8 9L8 8ZM11 9L11 11L10 11L10 10L9 10L9 12L8 12L8 13L9 13L9 14L10 14L10 16L11 16L11 17L12 17L12 18L13 18L13 17L14 17L14 15L13 15L13 17L12 17L12 16L11 16L11 15L12 15L12 14L13 14L13 12L12 12L12 14L10 14L10 13L9 13L9 12L11 12L11 11L12 11L12 9ZM17 10L17 12L16 12L16 11L15 11L15 13L16 13L16 14L18 14L18 12L19 12L19 11L20 11L20 10ZM20 13L20 14L19 14L19 15L17 15L17 16L19 16L19 17L21 17L21 15L20 15L20 14L21 14L21 13ZM19 18L19 19L18 19L18 20L19 20L19 21L20 21L20 20L19 20L19 19L21 19L21 18ZM8 19L8 21L11 21L11 20L9 20L9 19ZM0 0L0 7L7 7L7 0ZM1 1L1 6L6 6L6 1ZM2 2L2 5L5 5L5 2ZM14 0L14 7L21 7L21 0ZM15 1L15 6L20 6L20 1ZM16 2L16 5L19 5L19 2ZM0 14L0 21L7 21L7 14ZM1 15L1 20L6 20L6 15ZM2 16L2 19L5 19L5 16Z" fill="#000000"/></g></g></svg>
